<mxfile host="app.diagrams.net" modified="2024-03-12T16:28:54.888Z" agent="Mozilla/5.0 (Windows NT 10.0; Win64; x64) AppleWebKit/537.36 (KHTML, like Gecko) Chrome/122.0.0.0 Safari/537.36" etag="XxiIfLNRPlzX6pxdytaG" version="24.0.0" type="device">
  <diagram name="‫עמוד-1‬" id="pW2mJqzTbrAA5gFoUW1a">
    <mxGraphModel dx="1205" dy="866" grid="1" gridSize="10" guides="1" tooltips="1" connect="1" arrows="1" fold="1" page="1" pageScale="1" pageWidth="827" pageHeight="1169" math="0" shadow="0">
      <root>
        <mxCell id="0" />
        <mxCell id="1" parent="0" />
        <mxCell id="eo2xOFfBSTwsioDTNA7Q-10" value="" style="edgeStyle=orthogonalEdgeStyle;rounded=0;orthogonalLoop=1;jettySize=auto;html=1;" edge="1" parent="1" source="eo2xOFfBSTwsioDTNA7Q-4" target="eo2xOFfBSTwsioDTNA7Q-5">
          <mxGeometry relative="1" as="geometry" />
        </mxCell>
        <mxCell id="eo2xOFfBSTwsioDTNA7Q-4" value="התחברות למערכת בתור תושב" style="ellipse;whiteSpace=wrap;html=1;" vertex="1" parent="1">
          <mxGeometry x="354" y="40" width="120" height="80" as="geometry" />
        </mxCell>
        <mxCell id="eo2xOFfBSTwsioDTNA7Q-11" value="" style="edgeStyle=orthogonalEdgeStyle;rounded=0;orthogonalLoop=1;jettySize=auto;html=1;" edge="1" parent="1" source="eo2xOFfBSTwsioDTNA7Q-5" target="eo2xOFfBSTwsioDTNA7Q-6">
          <mxGeometry relative="1" as="geometry" />
        </mxCell>
        <mxCell id="eo2xOFfBSTwsioDTNA7Q-5" value="אזור ניהול רכבים" style="ellipse;whiteSpace=wrap;html=1;" vertex="1" parent="1">
          <mxGeometry x="354" y="150" width="120" height="80" as="geometry" />
        </mxCell>
        <mxCell id="eo2xOFfBSTwsioDTNA7Q-12" value="" style="edgeStyle=orthogonalEdgeStyle;rounded=0;orthogonalLoop=1;jettySize=auto;html=1;" edge="1" parent="1" source="eo2xOFfBSTwsioDTNA7Q-6" target="eo2xOFfBSTwsioDTNA7Q-7">
          <mxGeometry relative="1" as="geometry" />
        </mxCell>
        <mxCell id="eo2xOFfBSTwsioDTNA7Q-6" value="אזור ניהול אורחים" style="ellipse;whiteSpace=wrap;html=1;" vertex="1" parent="1">
          <mxGeometry x="354" y="260" width="120" height="80" as="geometry" />
        </mxCell>
        <mxCell id="eo2xOFfBSTwsioDTNA7Q-13" value="" style="edgeStyle=orthogonalEdgeStyle;rounded=0;orthogonalLoop=1;jettySize=auto;html=1;" edge="1" parent="1" source="eo2xOFfBSTwsioDTNA7Q-7" target="eo2xOFfBSTwsioDTNA7Q-8">
          <mxGeometry relative="1" as="geometry" />
        </mxCell>
        <mxCell id="eo2xOFfBSTwsioDTNA7Q-7" value="זיהוי רכבים הנכנסים" style="ellipse;whiteSpace=wrap;html=1;" vertex="1" parent="1">
          <mxGeometry x="354" y="380" width="120" height="80" as="geometry" />
        </mxCell>
        <mxCell id="eo2xOFfBSTwsioDTNA7Q-14" value="" style="edgeStyle=orthogonalEdgeStyle;rounded=0;orthogonalLoop=1;jettySize=auto;html=1;" edge="1" parent="1" source="eo2xOFfBSTwsioDTNA7Q-8" target="eo2xOFfBSTwsioDTNA7Q-9">
          <mxGeometry relative="1" as="geometry" />
        </mxCell>
        <mxCell id="eo2xOFfBSTwsioDTNA7Q-8" value="בדיקת הרכבים" style="ellipse;whiteSpace=wrap;html=1;" vertex="1" parent="1">
          <mxGeometry x="354" y="490" width="120" height="80" as="geometry" />
        </mxCell>
        <mxCell id="eo2xOFfBSTwsioDTNA7Q-33" value="" style="edgeStyle=orthogonalEdgeStyle;rounded=0;orthogonalLoop=1;jettySize=auto;html=1;" edge="1" parent="1" source="eo2xOFfBSTwsioDTNA7Q-9" target="eo2xOFfBSTwsioDTNA7Q-32">
          <mxGeometry relative="1" as="geometry" />
        </mxCell>
        <mxCell id="eo2xOFfBSTwsioDTNA7Q-9" value="קבלת אישור כניסה" style="ellipse;whiteSpace=wrap;html=1;" vertex="1" parent="1">
          <mxGeometry x="354" y="610" width="120" height="80" as="geometry" />
        </mxCell>
        <mxCell id="eo2xOFfBSTwsioDTNA7Q-24" style="edgeStyle=orthogonalEdgeStyle;rounded=0;orthogonalLoop=1;jettySize=auto;html=1;entryX=0;entryY=0.5;entryDx=0;entryDy=0;" edge="1" parent="1" target="eo2xOFfBSTwsioDTNA7Q-4">
          <mxGeometry relative="1" as="geometry">
            <mxPoint x="350" y="80" as="sourcePoint" />
          </mxGeometry>
        </mxCell>
        <mxCell id="eo2xOFfBSTwsioDTNA7Q-25" style="edgeStyle=orthogonalEdgeStyle;rounded=0;orthogonalLoop=1;jettySize=auto;html=1;exitX=0.5;exitY=0.5;exitDx=0;exitDy=0;exitPerimeter=0;" edge="1" parent="1" source="eo2xOFfBSTwsioDTNA7Q-15">
          <mxGeometry relative="1" as="geometry">
            <mxPoint x="360" y="80" as="targetPoint" />
          </mxGeometry>
        </mxCell>
        <mxCell id="eo2xOFfBSTwsioDTNA7Q-26" style="edgeStyle=orthogonalEdgeStyle;rounded=0;orthogonalLoop=1;jettySize=auto;html=1;exitX=0.5;exitY=0.5;exitDx=0;exitDy=0;exitPerimeter=0;entryX=0;entryY=0.5;entryDx=0;entryDy=0;" edge="1" parent="1" source="eo2xOFfBSTwsioDTNA7Q-15" target="eo2xOFfBSTwsioDTNA7Q-5">
          <mxGeometry relative="1" as="geometry" />
        </mxCell>
        <mxCell id="eo2xOFfBSTwsioDTNA7Q-27" style="edgeStyle=orthogonalEdgeStyle;rounded=0;orthogonalLoop=1;jettySize=auto;html=1;exitX=0.5;exitY=0.5;exitDx=0;exitDy=0;exitPerimeter=0;entryX=0;entryY=0.5;entryDx=0;entryDy=0;" edge="1" parent="1" source="eo2xOFfBSTwsioDTNA7Q-15" target="eo2xOFfBSTwsioDTNA7Q-6">
          <mxGeometry relative="1" as="geometry" />
        </mxCell>
        <mxCell id="eo2xOFfBSTwsioDTNA7Q-15" value="תושב" style="shape=umlActor;verticalLabelPosition=bottom;verticalAlign=top;html=1;outlineConnect=0;" vertex="1" parent="1">
          <mxGeometry x="170" y="80" width="50" height="90" as="geometry" />
        </mxCell>
        <mxCell id="eo2xOFfBSTwsioDTNA7Q-29" style="edgeStyle=orthogonalEdgeStyle;rounded=0;orthogonalLoop=1;jettySize=auto;html=1;exitX=0.5;exitY=0.5;exitDx=0;exitDy=0;exitPerimeter=0;entryX=0;entryY=0.5;entryDx=0;entryDy=0;" edge="1" parent="1" source="eo2xOFfBSTwsioDTNA7Q-17" target="eo2xOFfBSTwsioDTNA7Q-7">
          <mxGeometry relative="1" as="geometry" />
        </mxCell>
        <mxCell id="eo2xOFfBSTwsioDTNA7Q-30" style="edgeStyle=orthogonalEdgeStyle;rounded=0;orthogonalLoop=1;jettySize=auto;html=1;exitX=0.5;exitY=0.5;exitDx=0;exitDy=0;exitPerimeter=0;entryX=0;entryY=0.5;entryDx=0;entryDy=0;" edge="1" parent="1" source="eo2xOFfBSTwsioDTNA7Q-17" target="eo2xOFfBSTwsioDTNA7Q-9">
          <mxGeometry relative="1" as="geometry" />
        </mxCell>
        <mxCell id="eo2xOFfBSTwsioDTNA7Q-31" style="edgeStyle=orthogonalEdgeStyle;rounded=0;orthogonalLoop=1;jettySize=auto;html=1;exitX=0.5;exitY=0.5;exitDx=0;exitDy=0;exitPerimeter=0;entryX=0;entryY=0.5;entryDx=0;entryDy=0;" edge="1" parent="1" source="eo2xOFfBSTwsioDTNA7Q-17" target="eo2xOFfBSTwsioDTNA7Q-8">
          <mxGeometry relative="1" as="geometry" />
        </mxCell>
        <mxCell id="eo2xOFfBSTwsioDTNA7Q-17" value="אורח" style="shape=umlActor;verticalLabelPosition=bottom;verticalAlign=top;html=1;outlineConnect=0;" vertex="1" parent="1">
          <mxGeometry x="160" y="280" width="70" height="90" as="geometry" />
        </mxCell>
        <mxCell id="eo2xOFfBSTwsioDTNA7Q-36" style="edgeStyle=orthogonalEdgeStyle;rounded=0;orthogonalLoop=1;jettySize=auto;html=1;exitX=0.5;exitY=0.5;exitDx=0;exitDy=0;exitPerimeter=0;entryX=0;entryY=0.5;entryDx=0;entryDy=0;fillColor=#e51400;strokeColor=#B20000;" edge="1" parent="1" source="eo2xOFfBSTwsioDTNA7Q-22" target="eo2xOFfBSTwsioDTNA7Q-32">
          <mxGeometry relative="1" as="geometry" />
        </mxCell>
        <mxCell id="eo2xOFfBSTwsioDTNA7Q-22" value="זרים" style="shape=umlActor;verticalLabelPosition=bottom;verticalAlign=top;html=1;outlineConnect=0;" vertex="1" parent="1">
          <mxGeometry x="70" y="500" width="65" height="105" as="geometry" />
        </mxCell>
        <mxCell id="eo2xOFfBSTwsioDTNA7Q-37" style="edgeStyle=orthogonalEdgeStyle;rounded=0;orthogonalLoop=1;jettySize=auto;html=1;exitX=0.5;exitY=0.5;exitDx=0;exitDy=0;exitPerimeter=0;entryX=1;entryY=0.5;entryDx=0;entryDy=0;" edge="1" parent="1" source="eo2xOFfBSTwsioDTNA7Q-23" target="eo2xOFfBSTwsioDTNA7Q-7">
          <mxGeometry relative="1" as="geometry" />
        </mxCell>
        <mxCell id="eo2xOFfBSTwsioDTNA7Q-38" style="edgeStyle=orthogonalEdgeStyle;rounded=0;orthogonalLoop=1;jettySize=auto;html=1;exitX=0.5;exitY=0.5;exitDx=0;exitDy=0;exitPerimeter=0;entryX=1;entryY=0.5;entryDx=0;entryDy=0;" edge="1" parent="1" source="eo2xOFfBSTwsioDTNA7Q-23" target="eo2xOFfBSTwsioDTNA7Q-8">
          <mxGeometry relative="1" as="geometry" />
        </mxCell>
        <mxCell id="eo2xOFfBSTwsioDTNA7Q-39" style="edgeStyle=orthogonalEdgeStyle;rounded=0;orthogonalLoop=1;jettySize=auto;html=1;exitX=0.5;exitY=0.5;exitDx=0;exitDy=0;exitPerimeter=0;entryX=1;entryY=0.5;entryDx=0;entryDy=0;" edge="1" parent="1" source="eo2xOFfBSTwsioDTNA7Q-23" target="eo2xOFfBSTwsioDTNA7Q-9">
          <mxGeometry relative="1" as="geometry" />
        </mxCell>
        <mxCell id="eo2xOFfBSTwsioDTNA7Q-40" style="edgeStyle=orthogonalEdgeStyle;rounded=0;orthogonalLoop=1;jettySize=auto;html=1;exitX=0.5;exitY=0.5;exitDx=0;exitDy=0;exitPerimeter=0;entryX=1;entryY=0.5;entryDx=0;entryDy=0;" edge="1" parent="1" source="eo2xOFfBSTwsioDTNA7Q-23" target="eo2xOFfBSTwsioDTNA7Q-32">
          <mxGeometry relative="1" as="geometry" />
        </mxCell>
        <mxCell id="eo2xOFfBSTwsioDTNA7Q-23" value="מערכת" style="shape=umlActor;verticalLabelPosition=bottom;verticalAlign=top;html=1;outlineConnect=0;" vertex="1" parent="1">
          <mxGeometry x="630" y="300" width="60" height="80" as="geometry" />
        </mxCell>
        <mxCell id="eo2xOFfBSTwsioDTNA7Q-32" value="הקפצת כיתה כוננות" style="ellipse;whiteSpace=wrap;html=1;" vertex="1" parent="1">
          <mxGeometry x="354" y="710" width="120" height="80" as="geometry" />
        </mxCell>
        <mxCell id="eo2xOFfBSTwsioDTNA7Q-34" style="edgeStyle=orthogonalEdgeStyle;rounded=0;orthogonalLoop=1;jettySize=auto;html=1;exitX=0.5;exitY=0.5;exitDx=0;exitDy=0;exitPerimeter=0;entryX=-0.008;entryY=0.6;entryDx=0;entryDy=0;entryPerimeter=0;fillColor=#e51400;strokeColor=#B20000;" edge="1" parent="1" source="eo2xOFfBSTwsioDTNA7Q-22" target="eo2xOFfBSTwsioDTNA7Q-7">
          <mxGeometry relative="1" as="geometry" />
        </mxCell>
        <mxCell id="eo2xOFfBSTwsioDTNA7Q-35" style="edgeStyle=orthogonalEdgeStyle;rounded=0;orthogonalLoop=1;jettySize=auto;html=1;exitX=0.5;exitY=0.5;exitDx=0;exitDy=0;exitPerimeter=0;entryX=0.033;entryY=0.638;entryDx=0;entryDy=0;entryPerimeter=0;fillColor=#e51400;strokeColor=#B20000;" edge="1" parent="1" source="eo2xOFfBSTwsioDTNA7Q-22" target="eo2xOFfBSTwsioDTNA7Q-8">
          <mxGeometry relative="1" as="geometry" />
        </mxCell>
      </root>
    </mxGraphModel>
  </diagram>
</mxfile>
